<?xml version="1.0" encoding="UTF-8" standalone="no"?>
<!-- Created with Inkscape (http://www.inkscape.org/) -->

<svg
   width="1500mm"
   height="1000mm"
   viewBox="0 0 1500 1000"
   version="1.1"
   id="svg1"
   inkscape:version="1.4.2 (f4327f4, 2025-05-13)"
   sodipodi:docname="logo-addcolor.svg"
   inkscape:export-filename="logo-suite.jpg"
   inkscape:export-xdpi="96"
   inkscape:export-ydpi="96"
   xmlns:inkscape="http://www.inkscape.org/namespaces/inkscape"
   xmlns:sodipodi="http://sodipodi.sourceforge.net/DTD/sodipodi-0.dtd"
   xmlns:xlink="http://www.w3.org/1999/xlink"
   xmlns="http://www.w3.org/2000/svg"
   xmlns:svg="http://www.w3.org/2000/svg">
  <sodipodi:namedview
     id="namedview1"
     pagecolor="#ffffff"
     bordercolor="#3c2458"
     borderopacity="0.69019608"
     inkscape:showpageshadow="2"
     inkscape:pageopacity="0.0"
     inkscape:pagecheckerboard="0"
     inkscape:deskcolor="#d1d1d1"
     inkscape:document-units="mm"
     inkscape:zoom="0.17972959"
     inkscape:cx="2367.4455"
     inkscape:cy="1421.5801"
     inkscape:window-width="1920"
     inkscape:window-height="1009"
     inkscape:window-x="-8"
     inkscape:window-y="-8"
     inkscape:window-maximized="1"
     inkscape:current-layer="layer1" />
  <defs
     id="defs1">
    <linearGradient
       id="linearGradient107"
       inkscape:collect="always">
      <stop
         style="stop-color:#0088ab;stop-opacity:0.90196078;"
         offset="0"
         id="stop107" />
      <stop
         style="stop-color:#37c8ab;stop-opacity:1;"
         offset="1"
         id="stop108" />
    </linearGradient>
    <linearGradient
       id="linearGradient87"
       inkscape:collect="always">
      <stop
         style="stop-color:#0088aa;stop-opacity:1;"
         offset="0"
         id="stop87" />
      <stop
         style="stop-color:#37c8ab;stop-opacity:1;"
         offset="1"
         id="stop88" />
    </linearGradient>
    <linearGradient
       id="linearGradient29"
       inkscape:collect="always">
      <stop
         style="stop-color:#0088aa;stop-opacity:1;"
         offset="0"
         id="stop29" />
      <stop
         style="stop-color:#0088aa;stop-opacity:0;"
         offset="1"
         id="stop30" />
    </linearGradient>
    <linearGradient
       id="linearGradient24"
       inkscape:collect="always">
      <stop
         style="stop-color:#37c8ab;stop-opacity:1;"
         offset="0"
         id="stop24" />
      <stop
         style="stop-color:#37c8ab;stop-opacity:0;"
         offset="1"
         id="stop25" />
    </linearGradient>
    <linearGradient
       inkscape:collect="always"
       xlink:href="#linearGradient24"
       id="linearGradient25"
       x1="63.250156"
       y1="227.78932"
       x2="153.22421"
       y2="161.17593"
       gradientUnits="userSpaceOnUse" />
    <linearGradient
       inkscape:collect="always"
       xlink:href="#linearGradient24"
       id="linearGradient36"
       gradientUnits="userSpaceOnUse"
       x1="63.250156"
       y1="227.78932"
       x2="153.22421"
       y2="161.17593" />
    <linearGradient
       inkscape:collect="always"
       xlink:href="#linearGradient24"
       id="linearGradient37"
       gradientUnits="userSpaceOnUse"
       x1="63.250156"
       y1="227.78932"
       x2="153.22421"
       y2="161.17593" />
    <linearGradient
       inkscape:collect="always"
       xlink:href="#linearGradient24"
       id="linearGradient38"
       gradientUnits="userSpaceOnUse"
       x1="63.250156"
       y1="227.78932"
       x2="153.22421"
       y2="161.17593" />
    <linearGradient
       inkscape:collect="always"
       xlink:href="#linearGradient24"
       id="linearGradient39"
       gradientUnits="userSpaceOnUse"
       x1="63.250156"
       y1="227.78932"
       x2="153.22421"
       y2="161.17593" />
    <linearGradient
       inkscape:collect="always"
       xlink:href="#linearGradient24"
       id="linearGradient40"
       gradientUnits="userSpaceOnUse"
       x1="63.250156"
       y1="227.78932"
       x2="153.22421"
       y2="161.17593" />
    <linearGradient
       inkscape:collect="always"
       xlink:href="#linearGradient29"
       id="linearGradient12"
       gradientUnits="userSpaceOnUse"
       x1="68.034538"
       y1="229.62947"
       x2="153.59224"
       y2="161.912" />
    <linearGradient
       inkscape:collect="always"
       xlink:href="#linearGradient29"
       id="linearGradient13"
       gradientUnits="userSpaceOnUse"
       x1="68.034538"
       y1="229.62947"
       x2="153.59224"
       y2="161.912" />
    <linearGradient
       inkscape:collect="always"
       xlink:href="#linearGradient29"
       id="linearGradient14"
       gradientUnits="userSpaceOnUse"
       x1="68.034538"
       y1="229.62947"
       x2="153.59224"
       y2="161.912" />
    <linearGradient
       inkscape:collect="always"
       xlink:href="#linearGradient29"
       id="linearGradient15"
       gradientUnits="userSpaceOnUse"
       x1="68.034538"
       y1="229.62947"
       x2="153.59224"
       y2="161.912" />
    <linearGradient
       inkscape:collect="always"
       xlink:href="#linearGradient29"
       id="linearGradient16"
       gradientUnits="userSpaceOnUse"
       x1="68.034538"
       y1="229.62947"
       x2="153.59224"
       y2="161.912" />
    <linearGradient
       inkscape:collect="always"
       xlink:href="#linearGradient29"
       id="linearGradient17"
       gradientUnits="userSpaceOnUse"
       x1="68.034538"
       y1="229.62947"
       x2="153.59224"
       y2="161.912" />
    <linearGradient
       inkscape:collect="always"
       xlink:href="#linearGradient87"
       id="linearGradient88"
       x1="138.19861"
       y1="342.61456"
       x2="242.89413"
       y2="281.52164"
       gradientUnits="userSpaceOnUse" />
    <linearGradient
       inkscape:collect="always"
       xlink:href="#linearGradient87"
       id="linearGradient92"
       gradientUnits="userSpaceOnUse"
       x1="138.19861"
       y1="342.61456"
       x2="242.89413"
       y2="281.52164" />
    <linearGradient
       inkscape:collect="always"
       xlink:href="#linearGradient87"
       id="linearGradient93"
       gradientUnits="userSpaceOnUse"
       x1="138.19861"
       y1="342.61456"
       x2="242.89413"
       y2="281.52164" />
    <linearGradient
       inkscape:collect="always"
       xlink:href="#linearGradient87"
       id="linearGradient94"
       gradientUnits="userSpaceOnUse"
       x1="138.19861"
       y1="342.61456"
       x2="242.89413"
       y2="281.52164" />
    <linearGradient
       inkscape:collect="always"
       xlink:href="#linearGradient87"
       id="linearGradient95"
       gradientUnits="userSpaceOnUse"
       x1="138.19861"
       y1="342.61456"
       x2="242.89413"
       y2="281.52164" />
    <linearGradient
       inkscape:collect="always"
       xlink:href="#linearGradient87"
       id="linearGradient96"
       gradientUnits="userSpaceOnUse"
       x1="138.19861"
       y1="342.61456"
       x2="242.89413"
       y2="281.52164" />
    <linearGradient
       inkscape:collect="always"
       xlink:href="#linearGradient87"
       id="linearGradient97"
       gradientUnits="userSpaceOnUse"
       x1="138.19861"
       y1="342.61456"
       x2="242.89413"
       y2="281.52164" />
    <linearGradient
       inkscape:collect="always"
       xlink:href="#linearGradient87"
       id="linearGradient101"
       gradientUnits="userSpaceOnUse"
       x1="138.19861"
       y1="342.61456"
       x2="242.89413"
       y2="281.52164" />
    <linearGradient
       inkscape:collect="always"
       xlink:href="#linearGradient87"
       id="linearGradient102"
       gradientUnits="userSpaceOnUse"
       x1="138.19861"
       y1="342.61456"
       x2="242.89413"
       y2="281.52164" />
    <linearGradient
       inkscape:collect="always"
       xlink:href="#linearGradient87"
       id="linearGradient103"
       gradientUnits="userSpaceOnUse"
       x1="138.19861"
       y1="342.61456"
       x2="242.89413"
       y2="281.52164" />
    <linearGradient
       inkscape:collect="always"
       xlink:href="#linearGradient87"
       id="linearGradient104"
       gradientUnits="userSpaceOnUse"
       x1="138.19861"
       y1="342.61456"
       x2="242.89413"
       y2="281.52164" />
    <linearGradient
       inkscape:collect="always"
       xlink:href="#linearGradient87"
       id="linearGradient105"
       gradientUnits="userSpaceOnUse"
       x1="138.19861"
       y1="342.61456"
       x2="242.89413"
       y2="281.52164" />
    <linearGradient
       inkscape:collect="always"
       xlink:href="#linearGradient87"
       id="linearGradient106"
       gradientUnits="userSpaceOnUse"
       x1="138.19861"
       y1="342.61456"
       x2="242.89413"
       y2="281.52164" />
    <linearGradient
       inkscape:collect="always"
       xlink:href="#linearGradient107"
       id="linearGradient108"
       x1="786.8476"
       y1="372.44608"
       x2="987.05573"
       y2="258.35684"
       gradientUnits="userSpaceOnUse" />
  </defs>
  <g
     inkscape:label="图层 1"
     inkscape:groupmode="layer"
     id="layer1">
    <rect
       style="fill:url(#linearGradient108);fill-opacity:0.90196079;stroke-width:0.264999"
       id="rect86"
       width="259.0929"
       height="164.8773"
       x="762.55762"
       y="234.06691" />
    <g
       id="g11"
       style="fill:url(#linearGradient25)"
       transform="translate(87.959108,-113.72119)">
      <path
         id="path9"
         style="fill:url(#linearGradient36);fill-opacity:1;stroke:none;stroke-width:0"
         d="m 114.9368,174.66269 a 18,18 0 0 0 -8.99997,2.41174 18,18 0 0 0 -8.997896,15.30449 h -0.0021 v 0.28371 44.71665 H 132.9367 v -44.71665 -0.28371 h -0.002 a 18,18 0 0 0 -8.9979,-15.30449 18,18 0 0 0 -8.99996,-2.41174 z" />
      <path
         id="path10"
         style="fill:url(#linearGradient37);fill-opacity:1;stroke:none;stroke-width:0"
         d="m 75.822393,131.96969 a 18,18 0 0 0 -8.999968,2.41174 18,18 0 0 0 -8.9979,15.31431 h -0.0021 v 0.262 a 18,18 0 0 0 0,0.0124 v 15.91014 a 18,18 0 0 0 -0.158647,-5.1e-4 18,18 0 0 0 -8.999967,2.41122 18,18 0 0 0 -8.997384,15.26883 h -0.0026 v 0.30748 a 18,18 0 0 0 -5.17e-4,0.0124 h 5.17e-4 v 17.30489 a 18,18 0 0 0 -14.485421,8.96586 18,18 0 0 0 0,17.99993 18,18 0 0 0 15.268319,8.99739 v 0.003 h 0.319877 53.055676 v -0.13178 -35.86861 -51.18034 -0.2744 h -0.0021 a 18,18 0 0 0 -8.9979,-15.31431 18,18 0 0 0 -8.999967,-2.41174 z" />
      <circle
         style="fill:url(#linearGradient38);fill-opacity:1;stroke:none;stroke-width:0;stroke-dasharray:none;stroke-opacity:1"
         id="circle10"
         cx="114.93681"
         cy="159.40384"
         r="9" />
      <path
         id="path11"
         style="fill:url(#linearGradient39);fill-opacity:1;stroke:none;stroke-width:0"
         d="m 154.36178,192.59648 c -3.15962,-9e-5 -6.2636,0.83151 -8.99997,2.41122 -5.50229,3.17664 -8.92236,9.01869 -8.99893,15.37167 h -10e-4 v 0.21705 26.78286 l 18.4204,0.11081 3.24714,-0.4837 3.22549,-0.86953 3.23055,-1.94077 2.54145,-2.02154 1.79811,-2.03436 1.38978,-2.00546 0.94365,-2.02825 0.5454,-1.85429 0.6579,-3.59926 v -10.05651 -0.21705 h -0.001 c -0.0766,-6.35298 -3.49664,-12.19503 -8.99893,-15.37167 -2.73637,-1.57971 -5.84035,-2.41131 -8.99997,-2.41122 z"
         sodipodi:nodetypes="cccccccccccccccccccccc" />
      <circle
         style="fill:url(#linearGradient40);fill-opacity:1;stroke:none;stroke-width:0;stroke-dasharray:none;stroke-opacity:1"
         id="circle11"
         cx="155.42007"
         cy="177.33743"
         r="9" />
    </g>
    <g
       id="g86"
       style="fill:url(#linearGradient88)">
      <path
         id="path1"
         style="fill:url(#linearGradient88);fill-opacity:1;stroke:none;stroke-width:0"
         d="m 203.87068,294.27233 a 18,18 0 0 0 -8.99997,2.41174 18,18 0 0 0 -8.9979,15.30449 h -0.002 v 0.28371 44.71665 h 35.99987 v -44.71665 -0.28371 h -0.002 a 18,18 0 0 0 -8.9979,-15.30449 18,18 0 0 0 -8.99996,-2.41174 z" />
      <path
         id="path2"
         style="fill:url(#linearGradient88);fill-opacity:1;stroke:none;stroke-width:0"
         d="m 164.75627,251.57933 a 18,18 0 0 0 -8.99997,2.41174 18,18 0 0 0 -8.9979,15.31431 h -0.002 v 0.262 a 18,18 0 0 0 0,0.0124 v 15.91014 a 18,18 0 0 0 -0.15865,-5.1e-4 18,18 0 0 0 -8.99996,2.41122 18,18 0 0 0 -8.99739,15.26883 h -0.003 v 0.30748 a 18,18 0 0 0 -5.1e-4,0.0124 h 5.1e-4 v 17.30489 a 18,18 0 0 0 -14.48542,8.96586 18,18 0 0 0 0,17.99993 18,18 0 0 0 15.26832,8.99739 v 0.003 h 0.31988 53.05567 v -0.13178 -35.86861 -51.18034 -0.2744 h -0.002 a 18,18 0 0 0 -8.9979,-15.31431 18,18 0 0 0 -8.99996,-2.41174 z" />
      <path
         id="circle2"
         style="fill:url(#linearGradient88);stroke-width:0"
         d="m 212.87069,279.01348 a 9,9 0 0 1 -9,9 9,9 0 0 1 -9,-9 9,9 0 0 1 9,-9 9,9 0 0 1 9,9 z" />
      <path
         id="path3"
         style="fill:url(#linearGradient88);fill-opacity:1;stroke:none;stroke-width:0"
         d="m 243.29566,312.20612 c -3.15962,-9e-5 -6.2636,0.83151 -8.99997,2.41122 -5.50229,3.17664 -8.92236,9.01869 -8.99893,15.37167 h -0.001 v 0.21705 26.78286 l 18.4204,0.11081 3.24714,-0.4837 3.22549,-0.86953 3.23055,-1.94077 2.54145,-2.02154 1.79811,-2.03436 1.38978,-2.00546 0.94365,-2.02825 0.5454,-1.85429 0.6579,-3.59926 v -10.05651 -0.21705 h -0.001 c -0.0766,-6.35298 -3.49664,-12.19503 -8.99893,-15.37167 -2.73637,-1.57971 -5.84035,-2.41131 -8.99997,-2.41122 z"
         sodipodi:nodetypes="cccccccccccccccccccccc" />
      <path
         id="circle3"
         style="fill:url(#linearGradient88);stroke-width:0"
         d="m 253.35395,296.94707 a 9,9 0 0 1 -9,9 9,9 0 0 1 -9,-9 9,9 0 0 1 9,-9 9,9 0 0 1 9,9 z" />
    </g>
    <path
       style="font-weight:bold;font-size:24.6944px;font-family:Montserrat;-inkscape-font-specification:'Montserrat Bold';fill:#0088ab;stroke-width:0.933406;fill-opacity:0.90196079"
       d="m 119.34257,368.17025 v 17.07099 h 12.0198 v -3.79897 h -7.43725 v -13.27202 z m 22.462,-0.12177 c -5.43396,0 -9.49064,3.67721 -9.49064,8.64509 0,4.99223 4.05668,8.7425 9.49064,8.7425 5.43395,0 9.49064,-3.75027 9.49064,-8.7425 0,-4.94353 -4.05669,-8.64509 -9.49064,-8.64509 z m 0.0501,3.79897 c 2.62933,0 4.7328,2.0943 4.7328,4.87047 0,2.77617 -2.10347,4.91918 -4.7328,4.91918 -2.60429,0 -4.83296,-2.14301 -4.83296,-4.91918 0,-2.77617 2.20364,-4.87047 4.83296,-4.87047 z m 16.00138,6.2342 v -9.9114 h -4.58255 v 9.9114 c 0,4.50519 3.18024,7.35442 8.13842,7.35442 4.93312,0 8.03824,-2.84923 8.03824,-7.35442 v -9.9114 h -4.58256 v 9.9114 c 0,2.21607 -1.4023,3.55545 -3.43065,3.55545 -2.07842,0 -3.5809,-1.36374 -3.5809,-3.55545 z m 22.26167,-9.9114 h -7.56246 v 17.07099 h 7.38717 c 5.68436,0 9.51567,-3.45803 9.51567,-8.54767 0,-5.06529 -3.78122,-8.52332 -9.34038,-8.52332 z m 0.1252,13.46685 h -3.10512 v -9.83836 h 2.87975 c 2.77958,0 4.75784,1.99689 4.75784,4.94354 0,2.92227 -1.87809,4.89482 -4.53247,4.89482 z m 15.77601,-3.55545 v -9.9114 h -4.58255 v 9.9114 c 0,4.50519 3.18024,7.35442 8.13841,7.35442 4.93313,0 8.03824,-2.84923 8.03824,-7.35442 v -9.9114 h -4.58254 v 9.9114 c 0,2.21607 -1.40232,3.55545 -3.43066,3.55545 -2.07842,0 -3.5809,-1.36374 -3.5809,-3.55545 z m 26.79412,-4.65129 1.72785,-3.5311 c -1.82801,-1.14456 -4.4323,-1.92384 -7.01155,-1.92384 -4.23197,0 -7.01156,2.02125 -7.01156,5.21141 0,6.03938 9.24023,4.28602 9.24023,7.18394 0,0.90104 -0.8514,1.38808 -2.20363,1.38808 -1.82801,0 -4.55751,-1.0715 -6.36048,-2.58134 l -1.77793,3.48238 c 2.10347,1.68032 5.1585,2.72747 8.08833,2.72747 3.90644,0 7.06163,-1.77772 7.06163,-5.26011 0,-6.13679 -9.24022,-4.52954 -9.24022,-7.35441 0,-0.77927 0.7262,-1.16891 1.82801,-1.16891 1.4524,0 3.80627,0.80362 5.65932,1.82643 z m 4.08173,-5.26011 v 17.07099 H 240.993 v -3.55544 h -9.51567 v -3.21451 l 8.36378,-0.0244 v -3.53108 h -8.36378 v -3.19016 h 9.26527 v -3.55544 z m 32.62874,17.07099 -3.65604,-5.57669 c 2.02835,-1.02279 3.13017,-2.92227 3.13017,-5.50363 0,-3.79897 -2.65438,-5.99067 -7.31205,-5.99067 h -7.888 v 17.07099 h 4.58256 v -4.72435 h 3.30544 0.10019 l 2.55421,4.72435 z m -11.14336,-13.51555 h 3.33048 c 1.85305,0 2.92983,0.90103 2.92983,2.58135 0,1.72902 -1.07678,2.6544 -2.92983,2.6544 h -3.33048 z m 25.64226,1.70467 1.72785,-3.5311 c -1.82801,-1.14456 -4.43231,-1.92384 -7.01155,-1.92384 -4.23197,0 -7.01155,2.02125 -7.01155,5.21141 0,6.03938 9.24022,4.28602 9.24022,7.18394 0,0.90104 -0.85141,1.38808 -2.20364,1.38808 -1.82801,0 -4.5575,-1.0715 -6.36047,-2.58134 l -1.77793,3.48238 c 2.10346,1.68032 5.1585,2.72747 8.08833,2.72747 3.90643,0 7.06163,-1.77772 7.06163,-5.26011 0,-6.13679 -9.24023,-4.52954 -9.24023,-7.35441 0,-0.77927 0.7262,-1.16891 1.82801,-1.16891 1.4524,0 3.80628,0.80362 5.65933,1.82643 z"
       id="text4"
       aria-label="LOUDUSERS" />
    <path
       id="text5"
       style="font-style:normal;font-variant:normal;font-weight:bold;font-stretch:normal;font-size:24.6944px;font-family:Montserrat;-inkscape-font-specification:'Montserrat Bold';text-align:start;writing-mode:lr-tb;direction:ltr;text-anchor:start;fill:#0088ab;fill-opacity:0.90196079;stroke-width:0.264999"
       d="m 109.7063,368.05018 c -5.48216,0 -9.21133,3.50697 -9.21133,8.6434 0,5.16113 3.7783,8.66769 9.38393,8.66769 h 7.28482 v -3.68039 h -4.5191 v 0.0253 h -3.06183 c -2.6176,0 -4.46949,-2.00019 -4.46949,-4.96352 0,-2.98803 1.95062,-5.01313 4.6917,-5.01313 h 2.83962 v 0.0145 h 4.5191 v -3.69384 z" />
    <g
       id="g7"
       style="fill:url(#linearGradient17)"
       transform="translate(303.12719,-107.51841)">
      <path
         id="path5"
         style="fill:url(#linearGradient12);fill-opacity:1;stroke:none;stroke-width:0"
         d="m 114.9368,174.66269 a 18,18 0 0 0 -8.99997,2.41174 18,18 0 0 0 -8.997896,15.30449 h -0.0021 v 0.28371 44.71665 H 132.9367 v -44.71665 -0.28371 h -0.002 a 18,18 0 0 0 -8.9979,-15.30449 18,18 0 0 0 -8.99996,-2.41174 z" />
      <path
         id="path6"
         style="fill:url(#linearGradient13);fill-opacity:1;stroke:none;stroke-width:0"
         d="m 75.822393,131.96969 a 18,18 0 0 0 -8.999968,2.41174 18,18 0 0 0 -8.9979,15.31431 h -0.0021 v 0.262 a 18,18 0 0 0 0,0.0124 v 15.91014 a 18,18 0 0 0 -0.158647,-5.1e-4 18,18 0 0 0 -8.999967,2.41122 18,18 0 0 0 -8.997384,15.26883 h -0.0026 v 0.30748 a 18,18 0 0 0 -5.17e-4,0.0124 h 5.17e-4 v 17.30489 a 18,18 0 0 0 -14.485421,8.96586 18,18 0 0 0 0,17.99993 18,18 0 0 0 15.268319,8.99739 v 0.003 h 0.319877 53.055676 v -0.13178 -35.86861 -51.18034 -0.2744 h -0.0021 a 18,18 0 0 0 -8.9979,-15.31431 18,18 0 0 0 -8.999967,-2.41174 z" />
      <circle
         style="fill:url(#linearGradient14);fill-opacity:1;stroke:none;stroke-width:0;stroke-dasharray:none;stroke-opacity:1"
         id="circle6"
         cx="114.93681"
         cy="159.40384"
         r="9" />
      <path
         id="path7"
         style="fill:url(#linearGradient15);fill-opacity:1;stroke:none;stroke-width:0"
         d="m 154.36178,192.59648 c -3.15962,-9e-5 -6.2636,0.83151 -8.99997,2.41122 -5.50229,3.17664 -8.92236,9.01869 -8.99893,15.37167 h -10e-4 v 0.21705 26.78286 l 18.4204,0.11081 3.24714,-0.4837 3.22549,-0.86953 3.23055,-1.94077 2.54145,-2.02154 1.79811,-2.03436 1.38978,-2.00546 0.94365,-2.02825 0.5454,-1.85429 0.6579,-3.59926 v -10.05651 -0.21705 h -0.001 c -0.0766,-6.35298 -3.49664,-12.19503 -8.99893,-15.37167 -2.73637,-1.57971 -5.84035,-2.41131 -8.99997,-2.41122 z"
         sodipodi:nodetypes="cccccccccccccccccccccc" />
      <circle
         style="fill:url(#linearGradient16);fill-opacity:1;stroke:none;stroke-width:0;stroke-dasharray:none;stroke-opacity:1"
         id="circle7"
         cx="155.42007"
         cy="177.33743"
         r="9" />
    </g>
    <g
       id="g12"
       transform="translate(217.87361,-198.36803)"
       style="fill:#0088ab;fill-opacity:0.90196079">
      <path
         style="font-weight:bold;font-size:24.6944px;font-family:Montserrat;-inkscape-font-specification:'Montserrat Bold';fill:#0088ab;stroke-width:0.933406;fill-opacity:0.90196079"
         d="m 114.06021,344.17751 v 17.31077 h 11.85331 v -3.85233 h -7.33424 v -13.45844 z m 22.15087,-0.12348 c -5.35869,0 -9.35918,3.72886 -9.35918,8.76652 0,5.06235 4.00049,8.86529 9.35918,8.86529 5.35868,0 9.35918,-3.80294 9.35918,-8.86529 0,-5.01297 -4.0005,-8.76652 -9.35918,-8.76652 z m 0.0494,3.85233 c 2.59291,0 4.66724,2.12372 4.66724,4.93888 0,2.81516 -2.07433,4.98827 -4.66724,4.98827 -2.56822,0 -4.76602,-2.17311 -4.76602,-4.98827 0,-2.81516 2.17311,-4.93888 4.76602,-4.93888 z m 15.77974,6.32177 v -10.05062 h -4.51908 v 10.05062 c 0,4.56846 3.13619,7.45771 8.02569,7.45771 4.86479,0 7.9269,-2.88925 7.9269,-7.45771 v -10.05062 h -4.51908 v 10.05062 c 0,2.24719 -1.38288,3.60538 -3.38313,3.60538 -2.04964,0 -3.5313,-1.38289 -3.5313,-3.60538 z m 21.95331,-10.05062 h -7.45771 v 17.31077 h 7.28485 c 5.60563,0 9.38387,-3.5066 9.38387,-8.66773 0,-5.13644 -3.72885,-8.64304 -9.21101,-8.64304 z m 0.12347,13.656 h -3.06211 v -9.97654 h 2.83986 c 2.74108,0 4.69194,2.02494 4.69194,5.01297 0,2.96332 -1.85208,4.96357 -4.46969,4.96357 z m 15.55749,-3.60538 v -10.05062 h -4.51907 v 10.05062 c 0,4.56846 3.13619,7.45771 8.02568,7.45771 4.8648,0 7.9269,-2.88925 7.9269,-7.45771 v -10.05062 h -4.51907 v 10.05062 c 0,2.24719 -1.38289,3.60538 -3.38314,3.60538 -2.04963,0 -3.5313,-1.38289 -3.5313,-3.60538 z m 26.42299,-4.71663 1.70392,-3.58069 c -1.80269,-1.16064 -4.37091,-1.95086 -6.91443,-1.95086 -4.17336,0 -6.91444,2.04964 -6.91444,5.2846 0,6.12421 9.11224,4.34622 9.11224,7.28485 0,0.91369 -0.83961,1.40758 -2.17311,1.40758 -1.80269,0 -4.49438,-1.08655 -6.27238,-2.6176 l -1.7533,3.53129 c 2.07433,1.70392 5.08705,2.76578 7.97629,2.76578 3.85233,0 6.96382,-1.80269 6.96382,-5.33399 0,-6.22299 -9.11223,-4.59316 -9.11223,-7.45771 0,-0.79022 0.71614,-1.18533 1.80269,-1.18533 1.43228,0 3.75355,0.81491 5.58093,1.85208 z m 4.02519,-5.33399 v 17.31077 h 13.90295 v -3.60538 h -9.38387 v -3.25966 l 8.24793,-0.0247 v -3.58068 h -8.24793 v -3.23497 h 9.13693 v -3.60538 z m 32.17679,17.31077 -3.60539,-5.65502 c 2.00025,-1.03716 3.08681,-2.96332 3.08681,-5.58093 0,-3.85233 -2.61761,-6.07482 -7.21077,-6.07482 h -7.77874 v 17.31077 h 4.51908 v -4.79071 h 3.25966 0.0988 l 2.51883,4.79071 z m -10.98901,-13.70539 h 3.28435 c 1.82739,0 2.88925,0.91369 2.88925,2.61761 0,1.7533 -1.06186,2.69168 -2.88925,2.69168 h -3.28435 z m 25.28709,1.72861 1.70391,-3.58069 c -1.80269,-1.16064 -4.37091,-1.95086 -6.91443,-1.95086 -4.17335,0 -6.91443,2.04964 -6.91443,5.2846 0,6.12421 9.11223,4.34622 9.11223,7.28485 0,0.91369 -0.83961,1.40758 -2.17311,1.40758 -1.80269,0 -4.49438,-1.08655 -6.27237,-2.6176 l -1.75331,3.53129 c 2.07433,1.70392 5.08705,2.76578 7.9763,2.76578 3.85232,0 6.96382,-1.80269 6.96382,-5.33399 0,-6.22299 -9.11224,-4.59316 -9.11224,-7.45771 0,-0.79022 0.71614,-1.18533 1.80269,-1.18533 1.43228,0 3.75355,0.81491 5.58094,1.85208 z"
         id="path8"
         transform="scale(1.0140458,0.98614876)"
         aria-label="LOUDUSERS" />
      <path
         id="path12"
         style="font-style:normal;font-variant:normal;font-weight:bold;font-stretch:normal;font-size:24.6944px;font-family:Montserrat;-inkscape-font-specification:'Montserrat Bold';text-align:start;writing-mode:lr-tb;direction:ltr;text-anchor:start;fill:#0088ab;fill-opacity:0.90196079;stroke-width:0.264999"
         d="m 106.026,339.29016 c -5.48216,0 -9.211329,3.50697 -9.211329,8.6434 0,5.16113 3.778299,8.66769 9.383929,8.66769 h 7.28482 v -3.68039 h -4.5191 v 0.0253 h -3.06183 c -2.6176,0 -4.46949,-2.00019 -4.46949,-4.96352 0,-2.98803 1.95062,-5.01313 4.6917,-5.01313 h 2.83962 v 0.0145 h 4.5191 v -3.69384 z" />
    </g>
    <path
       id="path21"
       style="fill:#0088ab;fill-opacity:0.90196079;stroke:none;stroke-width:0"
       d="m 518.68864,251.57884 a 18,18 0 0 0 -8.99997,2.41174 18,18 0 0 0 -8.9979,15.31431 h -0.002 v 0.262 a 18,18 0 0 0 0,0.0124 v 15.91014 a 18,18 0 0 0 -0.15864,-5.2e-4 18,18 0 0 0 -8.99997,2.41122 18,18 0 0 0 -8.99739,15.26884 h -0.003 v 0.30747 a 18,18 0 0 0 -5.2e-4,0.0124 h 5.2e-4 v 17.30489 a 18,18 0 0 0 -14.48542,8.96586 18,18 0 0 0 0,17.99994 18,18 0 0 0 15.26832,8.99738 v 0.003 h 0.31988 53.05567 v -0.13177 -35.86861 -51.18034 -0.27441 h -0.002 a 18,18 0 0 0 -8.9979,-15.31431 18,18 0 0 0 -8.99996,-2.41174 z m 39.11441,18.43402 a 9,9 0 0 0 -8.99997,8.99997 9,9 0 0 0 8.99997,8.99997 9,9 0 0 0 8.99996,-8.99997 9,9 0 0 0 -8.99996,-8.99997 z m 40.48331,17.93379 a 9,9 0 0 0 -8.99996,8.99997 9,9 0 0 0 8.99996,8.99997 9,9 0 0 0 8.99997,-8.99997 9,9 0 0 0 -8.99997,-8.99997 z m -40.48331,6.3252 a 18,18 0 0 0 -8.99997,2.41174 18,18 0 0 0 -8.9979,15.30449 h -0.002 v 0.2837 44.71665 h 35.99987 v -44.71665 -0.2837 h -0.002 a 18,18 0 0 0 -8.9979,-15.30449 18,18 0 0 0 -8.99997,-2.41174 z m 39.42498,17.93379 c -3.15962,-9e-5 -6.2636,0.83151 -8.99997,2.41122 -5.50229,3.17664 -8.92236,9.01869 -8.99893,15.37167 h -0.001 v 0.21704 26.78286 l 18.42059,0.11059 3.24734,-0.48369 3.22513,-0.8692 3.23081,-1.94097 2.54145,-2.02158 1.79782,-2.03398 1.3901,-2.00557 0.94361,-2.0283 0.54518,-1.85415 0.65784,-3.59926 v -10.05675 -0.21704 h -10e-4 c -0.0766,-6.35298 -3.49664,-12.19503 -8.99893,-15.37167 -2.73637,-1.57971 -5.84035,-2.41131 -8.99997,-2.41122 z m -25.76639,55.7692 c -4.23198,0 -7.01146,2.02141 -7.01146,5.21157 0,6.03938 9.24027,4.28614 9.24027,7.18406 0,0.90104 -0.85126,1.38803 -2.20349,1.38803 -1.82801,0 -4.55735,-1.0714 -6.36033,-2.58124 l -1.77819,3.48196 c 2.10346,1.68032 5.15858,2.72748 8.0884,2.72748 3.90644,0 7.06158,-1.77776 7.06158,-5.26015 0,-6.13679 -9.24026,-4.5292 -9.24026,-7.35407 0,-0.77927 0.7265,-1.16892 1.82831,-1.16892 1.4524,0 3.80604,0.80344 5.65909,1.82625 l 1.72806,-3.53106 c -1.82801,-1.14456 -4.43274,-1.92391 -7.01198,-1.92391 z m 51.2098,0 c -4.23197,0 -7.01198,2.02141 -7.01198,5.21157 0,6.03938 9.24027,4.28614 9.24027,7.18406 0,0.90104 -0.85126,1.38803 -2.20349,1.38803 -1.82801,0 -4.55737,-1.0714 -6.36033,-2.58124 l -1.77819,3.48196 c 2.10347,1.68032 5.15857,2.72748 8.0884,2.72748 3.90643,0 7.06158,-1.77776 7.06158,-5.26015 0,-6.13679 -9.24026,-4.5292 -9.24026,-7.35407 0,-0.77927 0.7265,-1.16892 1.82831,-1.16892 1.45239,0 3.80603,0.80344 5.65909,1.82625 l 1.72806,-3.53106 c -1.82801,-1.14456 -4.43221,-1.92391 -7.01146,-1.92391 z m -126.93437,0.0734 c -5.43395,0 -9.49038,3.67707 -9.49038,8.64495 0,4.99223 4.05643,8.74262 9.49038,8.74262 5.43395,0 9.49089,-3.75039 9.49089,-8.74262 0,-4.94353 -4.05694,-8.64495 -9.49089,-8.64495 z m -32.0983,0.002 c -5.48216,0 -9.21133,3.50697 -9.21133,8.6434 0,5.16113 3.7783,8.66769 9.38393,8.66769 h 7.28482 v -3.6804 h -4.5191 v 0.0253 h -3.06183 c -2.6176,0 -4.46949,-2.0002 -4.46949,-4.96353 0,-2.98803 1.95062,-5.01313 4.6917,-5.01313 h 2.83962 v 0.0145 h 4.5191 v -3.69383 z m 9.63662,0.11989 v 17.07131 h 12.01942 v -3.79925 h -7.43727 v -13.27206 z m 33.93074,0 v 9.91154 c 0,4.50519 3.18035,7.35459 8.13853,7.35459 4.93312,0 8.03826,-2.8494 8.03826,-7.35459 v -9.91154 h -4.58266 v 9.91154 c 0,2.21607 -1.40246,3.55534 -3.4308,3.55534 -2.07843,0 -3.58066,-1.36363 -3.58066,-3.55534 v -9.91154 z m 19.28151,0 v 17.07131 h 7.38715 c 5.68437,0 9.5157,-3.45816 9.5157,-8.5478 0,-5.06529 -3.78084,-8.52351 -9.34,-8.52351 z m 18.88154,0 v 9.91154 c 0,4.50519 3.17984,7.35459 8.138,7.35459 4.93313,0 8.03827,-2.8494 8.03827,-7.35459 v -9.91154 h -4.58266 v 9.91154 c 0,2.21607 -1.40194,3.55534 -3.43028,3.55534 -2.07842,0 -3.58118,-1.36363 -3.58118,-3.55534 v -9.91154 z m 35.4583,0 v 17.07131 h 14.09785 v -3.55585 h -9.5157 v -3.21428 l 8.36383,-0.0243 v -3.53105 h -8.36383 v -3.1905 h 9.26558 v -3.55534 z m 16.90284,0 v 17.07131 h 4.58215 v -4.72478 h 3.30574 0.10026 l 2.55385,4.72478 h 5.18366 l -3.65611,-5.57692 c 2.02834,-1.02279 3.13056,-2.92218 3.13056,-5.50354 0,-3.79897 -2.65454,-5.99085 -7.31222,-5.99085 z m 4.58215,3.55534 h 3.33055 c 1.85306,0 2.93005,0.90143 2.93005,2.58175 0,1.72902 -1.07699,2.65411 -2.93005,2.65411 h -3.33055 z m -71.24216,0.0734 h 2.87993 c 2.77958,0 4.75785,1.99672 4.75785,4.94337 0,2.92227 -1.87816,4.89479 -4.53254,4.89479 h -3.10524 z m -35.28312,0.0486 c 2.62933,0 4.73305,2.09433 4.73305,4.8705 0,2.77617 -2.10372,4.91908 -4.73305,4.91908 -2.6043,0 -4.83278,-2.14291 -4.83278,-4.91908 0,-2.77617 2.20345,-4.8705 4.83278,-4.8705 z" />
    <path
       id="path43"
       style="fill:#ffffff;fill-opacity:1;stroke:none;stroke-width:0"
       d="m 862.31637,251.57884 a 18,18 0 0 0 -8.99997,2.41174 18,18 0 0 0 -8.9979,15.31431 h -0.002 v 0.262 a 18,18 0 0 0 0,0.0124 v 15.91014 a 18,18 0 0 0 -0.15864,-5.2e-4 18,18 0 0 0 -8.99997,2.41122 18,18 0 0 0 -8.99739,15.26884 h -0.003 v 0.30747 a 18,18 0 0 0 -5.2e-4,0.0124 h 5.2e-4 v 17.30489 a 18,18 0 0 0 -14.48542,8.96586 18,18 0 0 0 0,17.99994 18,18 0 0 0 15.26832,8.99738 v 0.003 h 0.31988 53.05567 v -0.13177 -35.86861 -51.18034 -0.27441 h -0.002 a 18,18 0 0 0 -8.9979,-15.31431 18,18 0 0 0 -8.99996,-2.41174 z m 39.11441,18.43402 a 9,9 0 0 0 -8.99997,8.99997 9,9 0 0 0 8.99997,8.99997 9,9 0 0 0 8.99996,-8.99997 9,9 0 0 0 -8.99996,-8.99997 z m 40.48331,17.93379 a 9,9 0 0 0 -8.99996,8.99997 9,9 0 0 0 8.99996,8.99997 9,9 0 0 0 8.99997,-8.99997 9,9 0 0 0 -8.99997,-8.99997 z m -40.48331,6.3252 a 18,18 0 0 0 -8.99997,2.41174 18,18 0 0 0 -8.9979,15.30449 h -0.002 v 0.2837 44.71665 h 35.99987 v -44.71665 -0.2837 h -0.002 a 18,18 0 0 0 -8.9979,-15.30449 18,18 0 0 0 -8.99997,-2.41174 z m 39.42498,17.93379 c -3.15962,-9e-5 -6.2636,0.83151 -8.99997,2.41122 -5.50229,3.17664 -8.92236,9.01869 -8.99893,15.37167 h -10e-4 v 0.21704 26.78286 l 18.42059,0.11059 3.24734,-0.48369 3.22513,-0.8692 3.23081,-1.94097 2.54145,-2.02158 1.79782,-2.03398 1.3901,-2.00557 0.94361,-2.0283 0.54518,-1.85415 0.65784,-3.59926 v -10.05675 -0.21704 h -10e-4 c -0.0766,-6.35298 -3.49664,-12.19503 -8.99893,-15.37167 -2.73637,-1.57971 -5.84035,-2.41131 -8.99997,-2.41122 z m -25.76639,55.7692 c -4.23198,0 -7.01146,2.02141 -7.01146,5.21157 0,6.03938 9.24027,4.28614 9.24027,7.18406 0,0.90104 -0.85126,1.38803 -2.20349,1.38803 -1.82801,0 -4.55735,-1.0714 -6.36033,-2.58124 l -1.77819,3.48196 c 2.10346,1.68032 5.15858,2.72748 8.0884,2.72748 3.90644,0 7.06158,-1.77776 7.06158,-5.26015 0,-6.13679 -9.24026,-4.5292 -9.24026,-7.35407 0,-0.77927 0.7265,-1.16892 1.82831,-1.16892 1.4524,0 3.80604,0.80344 5.65909,1.82625 l 1.72806,-3.53106 c -1.82801,-1.14456 -4.43274,-1.92391 -7.01198,-1.92391 z m 51.2098,0 c -4.23197,0 -7.01198,2.02141 -7.01198,5.21157 0,6.03938 9.24027,4.28614 9.24027,7.18406 0,0.90104 -0.85126,1.38803 -2.20349,1.38803 -1.82801,0 -4.55737,-1.0714 -6.36033,-2.58124 l -1.77819,3.48196 c 2.10347,1.68032 5.15857,2.72748 8.0884,2.72748 3.90643,0 7.06158,-1.77776 7.06158,-5.26015 0,-6.13679 -9.24026,-4.5292 -9.24026,-7.35407 0,-0.77927 0.7265,-1.16892 1.82831,-1.16892 1.45239,0 3.80603,0.80344 5.65909,1.82625 l 1.72806,-3.53106 c -1.82801,-1.14456 -4.43221,-1.92391 -7.01146,-1.92391 z m -126.93437,0.0734 c -5.43395,0 -9.49038,3.67707 -9.49038,8.64495 0,4.99223 4.05643,8.74262 9.49038,8.74262 5.43395,0 9.49089,-3.75039 9.49089,-8.74262 0,-4.94353 -4.05694,-8.64495 -9.49089,-8.64495 z m -32.0983,0.002 c -5.48216,0 -9.21133,3.50697 -9.21133,8.6434 0,5.16113 3.7783,8.66769 9.38393,8.66769 h 7.28482 v -3.6804 h -4.5191 v 0.0253 h -3.06183 c -2.6176,0 -4.46949,-2.0002 -4.46949,-4.96353 0,-2.98803 1.95062,-5.01313 4.6917,-5.01313 h 2.83962 v 0.0145 h 4.5191 v -3.69383 z m 9.63662,0.11989 v 17.07131 h 12.01942 v -3.79925 h -7.43727 v -13.27206 z m 33.93074,0 v 9.91154 c 0,4.50519 3.18035,7.35459 8.13853,7.35459 4.93312,0 8.03826,-2.8494 8.03826,-7.35459 v -9.91154 h -4.58266 v 9.91154 c 0,2.21607 -1.40246,3.55534 -3.4308,3.55534 -2.07843,0 -3.58066,-1.36363 -3.58066,-3.55534 v -9.91154 z m 19.28151,0 v 17.07131 h 7.38715 c 5.68437,0 9.5157,-3.45816 9.5157,-8.5478 0,-5.06529 -3.78084,-8.52351 -9.34,-8.52351 z m 18.88154,0 v 9.91154 c 0,4.50519 3.17984,7.35459 8.138,7.35459 4.93313,0 8.03827,-2.8494 8.03827,-7.35459 v -9.91154 h -4.58266 v 9.91154 c 0,2.21607 -1.40194,3.55534 -3.43028,3.55534 -2.07842,0 -3.58118,-1.36363 -3.58118,-3.55534 v -9.91154 z m 35.4583,0 v 17.07131 h 14.09785 v -3.55585 h -9.5157 v -3.21428 l 8.36383,-0.0243 v -3.53105 h -8.36383 v -3.1905 h 9.26558 v -3.55534 z m 16.90284,0 v 17.07131 h 4.58215 v -4.72478 h 3.30574 0.10026 l 2.55385,4.72478 h 5.18366 l -3.65611,-5.57692 c 2.02834,-1.02279 3.13056,-2.92218 3.13056,-5.50354 0,-3.79897 -2.65454,-5.99085 -7.31222,-5.99085 z m 4.58215,3.55534 h 3.33055 c 1.85306,0 2.93005,0.90143 2.93005,2.58175 0,1.72902 -1.07699,2.65411 -2.93005,2.65411 h -3.33055 z m -71.24216,0.0734 h 2.87993 c 2.77958,0 4.75785,1.99672 4.75785,4.94337 0,2.92227 -1.87816,4.89479 -4.53254,4.89479 h -3.10524 z m -35.28312,0.0486 c 2.62933,0 4.73305,2.09433 4.73305,4.8705 0,2.77617 -2.10372,4.91908 -4.73305,4.91908 -2.6043,0 -4.83278,-2.14291 -4.83278,-4.91908 0,-2.77617 2.20345,-4.8705 4.83278,-4.8705 z" />
    <path
       id="path44"
       style="fill:#000000;fill-opacity:1;stroke:none;stroke-width:0"
       d="m 1174.3892,251.57884 a 18,18 0 0 0 -9,2.41174 18,18 0 0 0 -8.9979,15.31431 v 0 0.262 a 18,18 0 0 0 0,0.0124 v 15.91014 a 18,18 0 0 0 -0.1586,-5.2e-4 18,18 0 0 0 -9,2.41122 18,18 0 0 0 -8.9974,15.26884 v 0 0.30747 a 18,18 0 0 0 -5e-4,0.0124 h 5e-4 v 17.30489 a 18,18 0 0 0 -14.4854,8.96586 18,18 0 0 0 0,17.99994 18,18 0 0 0 15.2683,8.99738 v 0.003 h 0.3199 53.0557 v -0.13177 -35.86861 -51.18034 -0.27441 0 a 18,18 0 0 0 -8.9979,-15.31431 18,18 0 0 0 -9,-2.41174 z m 39.1144,18.43402 a 9,9 0 0 0 -9,8.99997 9,9 0 0 0 9,8.99997 9,9 0 0 0 8.9999,-8.99997 9,9 0 0 0 -8.9999,-8.99997 z m 40.4833,17.93379 a 9,9 0 0 0 -9,8.99997 9,9 0 0 0 9,8.99997 9,9 0 0 0 9,-8.99997 9,9 0 0 0 -9,-8.99997 z m -40.4833,6.3252 a 18,18 0 0 0 -9,2.41174 18,18 0 0 0 -8.9979,15.30449 v 0 0.2837 44.71665 h 35.9999 v -44.71665 -0.2837 0 a 18,18 0 0 0 -8.9979,-15.30449 18,18 0 0 0 -9,-2.41174 z m 39.425,17.93379 c -3.1597,-9e-5 -6.2636,0.83151 -9,2.41122 -5.5023,3.17664 -8.9224,9.01869 -8.9989,15.37167 h -10e-4 v 0.21704 26.78286 l 18.4206,0.11059 3.2473,-0.48369 3.2251,-0.8692 3.2308,-1.94097 2.5415,-2.02158 1.7978,-2.03398 1.3901,-2.00557 0.9436,-2.0283 0.5452,-1.85415 0.6578,-3.59926 v -10.05675 -0.21704 h -10e-4 c -0.077,-6.35298 -3.4966,-12.19503 -8.9989,-15.37167 -2.7364,-1.57971 -5.8403,-2.41131 -9,-2.41122 z m -25.7664,55.7692 c -4.232,0 -7.0115,2.02141 -7.0115,5.21157 0,6.03938 9.2403,4.28614 9.2403,7.18406 0,0.90104 -0.8513,1.38803 -2.2035,1.38803 -1.828,0 -4.5574,-1.0714 -6.3603,-2.58124 l -1.7782,3.48196 c 2.1034,1.68032 5.1586,2.72748 8.0884,2.72748 3.9064,0 7.0616,-1.77776 7.0616,-5.26015 0,-6.13679 -9.2403,-4.5292 -9.2403,-7.35407 0,-0.77927 0.7265,-1.16892 1.8283,-1.16892 1.4524,0 3.806,0.80344 5.6591,1.82625 l 1.7281,-3.53106 c -1.8281,-1.14456 -4.4328,-1.92391 -7.012,-1.92391 z m 51.2098,0 c -4.232,0 -7.012,2.02141 -7.012,5.21157 0,6.03938 9.2403,4.28614 9.2403,7.18406 0,0.90104 -0.8513,1.38803 -2.2035,1.38803 -1.828,0 -4.5574,-1.0714 -6.3604,-2.58124 l -1.7781,3.48196 c 2.1034,1.68032 5.1585,2.72748 8.0884,2.72748 3.9064,0 7.0615,-1.77776 7.0615,-5.26015 0,-6.13679 -9.2402,-4.5292 -9.2402,-7.35407 0,-0.77927 0.7265,-1.16892 1.8283,-1.16892 1.4524,0 3.806,0.80344 5.6591,1.82625 l 1.728,-3.53106 c -1.828,-1.14456 -4.4322,-1.92391 -7.0114,-1.92391 z m -126.9344,0.0734 c -5.4339,0 -9.4904,3.67707 -9.4904,8.64495 0,4.99223 4.0565,8.74262 9.4904,8.74262 5.434,0 9.4909,-3.75039 9.4909,-8.74262 0,-4.94353 -4.0569,-8.64495 -9.4909,-8.64495 z m -32.0983,0.002 c -5.4822,0 -9.2113,3.50697 -9.2113,8.6434 0,5.16113 3.7783,8.66769 9.3839,8.66769 h 7.2848 v -3.6804 h -4.5191 v 0.0253 h -3.0618 c -2.6176,0 -4.4695,-2.0002 -4.4695,-4.96353 0,-2.98803 1.9506,-5.01313 4.6917,-5.01313 h 2.8396 v 0.0145 h 4.5191 v -3.69383 z m 9.6366,0.11989 v 17.07131 h 12.0194 v -3.79925 h -7.4372 v -13.27206 z m 33.9308,0 v 9.91154 c 0,4.50519 3.1803,7.35459 8.1385,7.35459 4.9331,0 8.0383,-2.8494 8.0383,-7.35459 v -9.91154 h -4.5827 v 9.91154 c 0,2.21607 -1.4025,3.55534 -3.4308,3.55534 -2.0784,0 -3.5807,-1.36363 -3.5807,-3.55534 v -9.91154 z m 19.2815,0 v 17.07131 h 7.3871 c 5.6844,0 9.5157,-3.45816 9.5157,-8.5478 0,-5.06529 -3.7808,-8.52351 -9.34,-8.52351 z m 18.8815,0 v 9.91154 c 0,4.50519 3.1799,7.35459 8.138,7.35459 4.9331,0 8.0383,-2.8494 8.0383,-7.35459 v -9.91154 h -4.5827 v 9.91154 c 0,2.21607 -1.4019,3.55534 -3.4303,3.55534 -2.0784,0 -3.5811,-1.36363 -3.5811,-3.55534 v -9.91154 z m 35.4583,0 v 17.07131 h 14.0979 v -3.55585 h -9.5157 v -3.21428 l 8.3638,-0.0243 v -3.53105 h -8.3638 v -3.1905 h 9.2655 v -3.55534 z m 16.9029,0 v 17.07131 h 4.5821 v -4.72478 h 3.3057 0.1003 l 2.5539,4.72478 h 5.1836 l -3.6561,-5.57692 c 2.0283,-1.02279 3.1306,-2.92218 3.1306,-5.50354 0,-3.79897 -2.6546,-5.99085 -7.3123,-5.99085 z m 4.5821,3.55534 h 3.3306 c 1.853,0 2.93,0.90143 2.93,2.58175 0,1.72902 -1.077,2.65411 -2.93,2.65411 h -3.3306 z m -71.2422,0.0734 h 2.88 c 2.7796,0 4.7578,1.99672 4.7578,4.94337 0,2.92227 -1.8781,4.89479 -4.5325,4.89479 h -3.1053 z m -35.2831,0.0486 c 2.6294,0 4.7331,2.09433 4.7331,4.8705 0,2.77617 -2.1037,4.91908 -4.7331,4.91908 -2.6043,0 -4.8328,-2.14291 -4.8328,-4.91908 0,-2.77617 2.2035,-4.8705 4.8328,-4.8705 z" />
    <path
       style="font-weight:bold;font-size:24.6944px;font-family:Montserrat;-inkscape-font-specification:'Montserrat Bold';fill:#0088ab;fill-opacity:0.90196079;stroke-width:1.8425"
       d="m 500.72049,509.54574 v 33.69736 h 23.72654 v -7.49899 h -14.6808 v -26.19837 z m 44.33896,-0.24037 c -10.72638,0 -18.73409,7.25865 -18.73409,17.06502 0,9.85443 8.00771,17.25728 18.73409,17.25728 10.72636,0 18.73408,-7.40285 18.73408,-17.25728 0,-9.75831 -8.00772,-17.06502 -18.73408,-17.06502 z m 0.0989,7.49899 c 5.19018,0 9.34232,4.13406 9.34232,9.61409 0,5.48003 -4.15214,9.71023 -9.34232,9.71023 -5.14075,0 -9.54005,-4.2302 -9.54005,-9.71023 0,-5.48003 4.34987,-9.61409 9.54005,-9.61409 z m 31.58599,12.30604 v -19.56466 h -9.04575 v 19.56466 c 0,8.89302 6.27765,14.51727 16.06486,14.51727 9.73776,0 15.86712,-5.62425 15.86712,-14.51727 v -19.56466 h -9.04575 v 19.56466 c 0,4.37441 -2.76808,7.01828 -6.77194,7.01828 -4.10273,0 -7.06854,-2.69195 -7.06854,-7.01828 z m 43.94351,-19.56466 H 605.7599 v 33.69736 h 14.58194 c 11.22067,0 18.7835,-6.82599 18.7835,-16.87271 0,-9.99866 -7.46396,-16.82465 -18.43749,-16.82465 z m 0.24714,26.58294 h -6.12936 v -19.42046 h 5.68449 c 5.48677,0 9.39176,3.94177 9.39176,9.75831 0,5.76844 -3.70727,9.66215 -8.94689,9.66215 z m 31.14112,-7.01828 v -19.56466 h -9.04573 v 19.56466 c 0,8.89302 6.27765,14.51727 16.06484,14.51727 9.73778,0 15.86712,-5.62425 15.86712,-14.51727 v -19.56466 h -9.04573 v 19.56466 c 0,4.37441 -2.7681,7.01828 -6.77196,7.01828 -4.10271,0 -7.06854,-2.69195 -7.06854,-7.01828 z m 52.89038,-9.18145 3.4107,-6.97022 c -3.60841,-2.25931 -8.74917,-3.79757 -13.84048,-3.79757 -8.35373,0 -13.8405,3.98986 -13.8405,10.28707 0,11.92147 18.23979,8.46041 18.23979,14.18078 0,1.77861 -1.68063,2.74002 -4.34987,2.74002 -3.60841,0 -8.99631,-2.11509 -12.5553,-5.09546 l -3.50954,6.87406 c 4.15214,3.31687 10.18265,5.3839 15.96598,5.3839 7.71113,0 13.93934,-3.50914 13.93934,-10.38321 0,-12.11375 -18.23977,-8.94111 -18.23977,-14.51727 0,-1.53826 1.43348,-2.30738 3.60841,-2.30738 2.86697,0 7.51341,1.58631 11.17124,3.60528 z m 8.05714,-10.38321 v 33.69736 h 27.82926 v -7.01828 h -18.78351 v -6.34529 l 16.50972,-0.0481 v -6.9702 H 722.06938 V 516.564 h 18.28921 v -7.01828 z m 64.40764,33.69736 -7.21684,-11.00813 c 4.00386,-2.01895 6.17881,-5.76844 6.17881,-10.86391 0,-7.499 -5.23962,-11.82532 -14.43366,-11.82532 h -15.57055 v 33.69736 h 9.04576 v -9.32566 h 6.52479 0.19777 l 5.04189,9.32566 z m -21.99648,-26.67908 h 6.57421 c 3.65785,0 5.78336,1.7786 5.78336,5.09547 0,3.41299 -2.12551,5.23966 -5.78336,5.23966 h -6.57421 z m 50.61666,3.36493 3.41068,-6.97022 c -3.60841,-2.25931 -8.74916,-3.79757 -13.84047,-3.79757 -8.35372,0 -13.84048,3.98986 -13.84048,10.28707 0,11.92147 18.23977,8.46041 18.23977,14.18078 0,1.77861 -1.68063,2.74002 -4.34987,2.74002 -3.60841,0 -8.99631,-2.11509 -12.55528,-5.09546 l -3.50957,6.87406 c 4.15215,3.31687 10.18265,5.3839 15.966,5.3839 7.71112,0 13.93934,-3.50914 13.93934,-10.38321 0,-12.11375 -18.23978,-8.94111 -18.23978,-14.51727 0,-1.53826 1.43348,-2.30738 3.6084,-2.30738 2.86697,0 7.51341,1.58631 11.17126,3.60528 z"
       id="path69"
       aria-label="LOUDUSERS" />
    <path
       id="path70"
       style="font-style:normal;font-variant:normal;font-weight:bold;font-stretch:normal;font-size:24.6944px;font-family:Montserrat;-inkscape-font-specification:'Montserrat Bold';text-align:start;writing-mode:lr-tb;direction:ltr;text-anchor:start;fill:#0088ab;fill-opacity:0.90196079;stroke-width:0.523096"
       d="m 481.69892,509.30873 c -10.82153,0 -18.18274,6.9226 -18.18274,17.06168 0,10.18783 7.45819,17.10962 18.52344,17.10962 h 14.3799 v -7.26492 h -8.92049 v 0.0499 h -6.04391 c -5.16703,0 -8.82257,-3.94828 -8.82257,-9.79776 0,-5.89824 3.85043,-9.89569 9.2612,-9.89569 h 5.60528 v 0.0286 h 8.92049 v -7.29147 z" />
    <g
       id="g77"
       style="fill:#0088ab;fill-opacity:0.90196079"
       transform="translate(833.6963,306.13758)">
      <path
         id="path75"
         style="fill:#0088ab;fill-opacity:0.90196079;stroke:none;stroke-width:0"
         d="m 114.9368,174.66269 a 18,18 0 0 0 -8.99997,2.41174 18,18 0 0 0 -8.997896,15.30449 h -0.0021 v 0.28371 44.71665 H 132.9367 v -44.71665 -0.28371 h -0.002 a 18,18 0 0 0 -8.9979,-15.30449 18,18 0 0 0 -8.99996,-2.41174 z" />
      <path
         id="path76"
         style="fill:#0088ab;fill-opacity:0.90196079;stroke:none;stroke-width:0"
         d="m 75.822393,131.96969 a 18,18 0 0 0 -8.999968,2.41174 18,18 0 0 0 -8.9979,15.31431 h -0.0021 v 0.262 a 18,18 0 0 0 0,0.0124 v 15.91014 a 18,18 0 0 0 -0.158647,-5.1e-4 18,18 0 0 0 -8.999967,2.41122 18,18 0 0 0 -8.997384,15.26883 h -0.0026 v 0.30748 a 18,18 0 0 0 -5.17e-4,0.0124 h 5.17e-4 v 17.30489 a 18,18 0 0 0 -14.485421,8.96586 18,18 0 0 0 0,17.99993 18,18 0 0 0 15.268319,8.99739 v 0.003 h 0.319877 53.055676 v -0.13178 -35.86861 -51.18034 -0.2744 h -0.0021 a 18,18 0 0 0 -8.9979,-15.31431 18,18 0 0 0 -8.999967,-2.41174 z" />
      <circle
         style="fill:#0088ab;fill-opacity:0.90196079;stroke:none;stroke-width:0;stroke-dasharray:none;stroke-opacity:1"
         id="circle76"
         cx="114.93681"
         cy="159.40384"
         r="9" />
      <path
         id="path77"
         style="fill:#0088ab;fill-opacity:0.90196079;stroke:none;stroke-width:0"
         d="m 154.36178,192.59648 c -3.15962,-9e-5 -6.2636,0.83151 -8.99997,2.41122 -5.50229,3.17664 -8.92236,9.01869 -8.99893,15.37167 h -10e-4 v 0.21705 26.78286 l 18.4204,0.11081 3.24714,-0.4837 3.22549,-0.86953 3.23055,-1.94077 2.54145,-2.02154 1.79811,-2.03436 1.38978,-2.00546 0.94365,-2.02825 0.5454,-1.85429 0.6579,-3.59926 v -10.05651 -0.21705 h -0.001 c -0.0766,-6.35298 -3.49664,-12.19503 -8.99893,-15.37167 -2.73637,-1.57971 -5.84035,-2.41131 -8.99997,-2.41122 z"
         sodipodi:nodetypes="cccccccccccccccccccccc" />
      <circle
         style="fill:#0088ab;fill-opacity:0.90196079;stroke:none;stroke-width:0;stroke-dasharray:none;stroke-opacity:1"
         id="circle77"
         cx="155.42007"
         cy="177.33743"
         r="9" />
    </g>
    <g
       id="g79"
       transform="matrix(1.9739543,0,0,1.9739543,824.8125,-160.43454)"
       style="fill:#0088ab;fill-opacity:0.90196079">
      <path
         style="font-weight:bold;font-size:24.6944px;font-family:Montserrat;-inkscape-font-specification:'Montserrat Bold';fill:#0088ab;fill-opacity:0.90196079;stroke-width:0.933406"
         d="m 114.06021,344.17751 v 17.31077 h 11.85331 v -3.85233 h -7.33424 v -13.45844 z m 22.15087,-0.12348 c -5.35869,0 -9.35918,3.72886 -9.35918,8.76652 0,5.06235 4.00049,8.86529 9.35918,8.86529 5.35868,0 9.35918,-3.80294 9.35918,-8.86529 0,-5.01297 -4.0005,-8.76652 -9.35918,-8.76652 z m 0.0494,3.85233 c 2.59291,0 4.66724,2.12372 4.66724,4.93888 0,2.81516 -2.07433,4.98827 -4.66724,4.98827 -2.56822,0 -4.76602,-2.17311 -4.76602,-4.98827 0,-2.81516 2.17311,-4.93888 4.76602,-4.93888 z m 15.77974,6.32177 v -10.05062 h -4.51908 v 10.05062 c 0,4.56846 3.13619,7.45771 8.02569,7.45771 4.86479,0 7.9269,-2.88925 7.9269,-7.45771 v -10.05062 h -4.51908 v 10.05062 c 0,2.24719 -1.38288,3.60538 -3.38313,3.60538 -2.04964,0 -3.5313,-1.38289 -3.5313,-3.60538 z m 21.95331,-10.05062 h -7.45771 v 17.31077 h 7.28485 c 5.60563,0 9.38387,-3.5066 9.38387,-8.66773 0,-5.13644 -3.72885,-8.64304 -9.21101,-8.64304 z m 0.12347,13.656 h -3.06211 v -9.97654 h 2.83986 c 2.74108,0 4.69194,2.02494 4.69194,5.01297 0,2.96332 -1.85208,4.96357 -4.46969,4.96357 z m 15.55749,-3.60538 v -10.05062 h -4.51907 v 10.05062 c 0,4.56846 3.13619,7.45771 8.02568,7.45771 4.8648,0 7.9269,-2.88925 7.9269,-7.45771 v -10.05062 h -4.51907 v 10.05062 c 0,2.24719 -1.38289,3.60538 -3.38314,3.60538 -2.04963,0 -3.5313,-1.38289 -3.5313,-3.60538 z m 26.42299,-4.71663 1.70392,-3.58069 c -1.80269,-1.16064 -4.37091,-1.95086 -6.91443,-1.95086 -4.17336,0 -6.91444,2.04964 -6.91444,5.2846 0,6.12421 9.11224,4.34622 9.11224,7.28485 0,0.91369 -0.83961,1.40758 -2.17311,1.40758 -1.80269,0 -4.49438,-1.08655 -6.27238,-2.6176 l -1.7533,3.53129 c 2.07433,1.70392 5.08705,2.76578 7.97629,2.76578 3.85233,0 6.96382,-1.80269 6.96382,-5.33399 0,-6.22299 -9.11223,-4.59316 -9.11223,-7.45771 0,-0.79022 0.71614,-1.18533 1.80269,-1.18533 1.43228,0 3.75355,0.81491 5.58093,1.85208 z m 4.02519,-5.33399 v 17.31077 h 13.90295 v -3.60538 h -9.38387 v -3.25966 l 8.24793,-0.0247 v -3.58068 h -8.24793 v -3.23497 h 9.13693 v -3.60538 z m 32.17679,17.31077 -3.60539,-5.65502 c 2.00025,-1.03716 3.08681,-2.96332 3.08681,-5.58093 0,-3.85233 -2.61761,-6.07482 -7.21077,-6.07482 h -7.77874 v 17.31077 h 4.51908 v -4.79071 h 3.25966 0.0988 l 2.51883,4.79071 z m -10.98901,-13.70539 h 3.28435 c 1.82739,0 2.88925,0.91369 2.88925,2.61761 0,1.7533 -1.06186,2.69168 -2.88925,2.69168 h -3.28435 z m 25.28709,1.72861 1.70391,-3.58069 c -1.80269,-1.16064 -4.37091,-1.95086 -6.91443,-1.95086 -4.17335,0 -6.91443,2.04964 -6.91443,5.2846 0,6.12421 9.11223,4.34622 9.11223,7.28485 0,0.91369 -0.83961,1.40758 -2.17311,1.40758 -1.80269,0 -4.49438,-1.08655 -6.27237,-2.6176 l -1.75331,3.53129 c 2.07433,1.70392 5.08705,2.76578 7.9763,2.76578 3.85232,0 6.96382,-1.80269 6.96382,-5.33399 0,-6.22299 -9.11224,-4.59316 -9.11224,-7.45771 0,-0.79022 0.71614,-1.18533 1.80269,-1.18533 1.43228,0 3.75355,0.81491 5.58094,1.85208 z"
         id="path78"
         transform="scale(1.0140458,0.98614876)"
         aria-label="LOUDUSERS" />
      <path
         id="path79"
         style="font-style:normal;font-variant:normal;font-weight:bold;font-stretch:normal;font-size:24.6944px;font-family:Montserrat;-inkscape-font-specification:'Montserrat Bold';text-align:start;writing-mode:lr-tb;direction:ltr;text-anchor:start;fill:#0088ab;fill-opacity:0.90196079;stroke-width:0.264999"
         d="m 106.026,339.29016 c -5.48216,0 -9.211329,3.50697 -9.211329,8.6434 0,5.16113 3.778299,8.66769 9.383929,8.66769 h 7.28482 v -3.68039 h -4.5191 v 0.0253 h -3.06183 c -2.6176,0 -4.46949,-2.00019 -4.46949,-4.96352 0,-2.98803 1.95062,-5.01313 4.6917,-5.01313 h 2.83962 v 0.0145 h 4.5191 v -3.69384 z" />
    </g>
    <g
       id="g92"
       style="fill:url(#linearGradient97)"
       transform="translate(-0.64454818,186.95911)">
      <path
         id="path88"
         style="fill:url(#linearGradient92);fill-opacity:1;stroke:none;stroke-width:0"
         d="m 203.87068,294.27233 a 18,18 0 0 0 -8.99997,2.41174 18,18 0 0 0 -8.9979,15.30449 h -0.002 v 0.28371 44.71665 h 35.99987 v -44.71665 -0.28371 h -0.002 a 18,18 0 0 0 -8.9979,-15.30449 18,18 0 0 0 -8.99996,-2.41174 z" />
      <path
         id="path89"
         style="fill:url(#linearGradient93);fill-opacity:1;stroke:none;stroke-width:0"
         d="m 164.75627,251.57933 a 18,18 0 0 0 -8.99997,2.41174 18,18 0 0 0 -8.9979,15.31431 h -0.002 v 0.262 a 18,18 0 0 0 0,0.0124 v 15.91014 a 18,18 0 0 0 -0.15865,-5.1e-4 18,18 0 0 0 -8.99996,2.41122 18,18 0 0 0 -8.99739,15.26883 h -0.003 v 0.30748 a 18,18 0 0 0 -5.1e-4,0.0124 h 5.1e-4 v 17.30489 a 18,18 0 0 0 -14.48542,8.96586 18,18 0 0 0 0,17.99993 18,18 0 0 0 15.26832,8.99739 v 0.003 h 0.31988 53.05567 v -0.13178 -35.86861 -51.18034 -0.2744 h -0.002 a 18,18 0 0 0 -8.9979,-15.31431 18,18 0 0 0 -8.99996,-2.41174 z" />
      <path
         id="path90"
         style="fill:url(#linearGradient94);stroke-width:0"
         d="m 212.87069,279.01348 a 9,9 0 0 1 -9,9 9,9 0 0 1 -9,-9 9,9 0 0 1 9,-9 9,9 0 0 1 9,9 z" />
      <path
         id="path91"
         style="fill:url(#linearGradient95);fill-opacity:1;stroke:none;stroke-width:0"
         d="m 243.29566,312.20612 c -3.15962,-9e-5 -6.2636,0.83151 -8.99997,2.41122 -5.50229,3.17664 -8.92236,9.01869 -8.99893,15.37167 h -0.001 v 0.21705 26.78286 l 18.4204,0.11081 3.24714,-0.4837 3.22549,-0.86953 3.23055,-1.94077 2.54145,-2.02154 1.79811,-2.03436 1.38978,-2.00546 0.94365,-2.02825 0.5454,-1.85429 0.6579,-3.59926 v -10.05651 -0.21705 h -0.001 c -0.0766,-6.35298 -3.49664,-12.19503 -8.99893,-15.37167 -2.73637,-1.57971 -5.84035,-2.41131 -8.99997,-2.41122 z"
         sodipodi:nodetypes="cccccccccccccccccccccc" />
      <path
         id="path92"
         style="fill:url(#linearGradient96);stroke-width:0"
         d="m 253.35395,296.94707 a 9,9 0 0 1 -9,9 9,9 0 0 1 -9,-9 9,9 0 0 1 9,-9 9,9 0 0 1 9,9 z" />
    </g>
    <g
       id="g101"
       style="fill:url(#linearGradient106)"
       transform="translate(192.11152,186.22305)">
      <path
         id="path97"
         style="fill:url(#linearGradient101);fill-opacity:1;stroke:none;stroke-width:0"
         d="m 203.87068,294.27233 a 18,18 0 0 0 -8.99997,2.41174 18,18 0 0 0 -8.9979,15.30449 h -0.002 v 0.28371 44.71665 h 35.99987 v -44.71665 -0.28371 h -0.002 a 18,18 0 0 0 -8.9979,-15.30449 18,18 0 0 0 -8.99996,-2.41174 z" />
      <path
         id="path98"
         style="fill:url(#linearGradient102);fill-opacity:1;stroke:none;stroke-width:0"
         d="m 164.75627,251.57933 a 18,18 0 0 0 -8.99997,2.41174 18,18 0 0 0 -8.9979,15.31431 h -0.002 v 0.262 a 18,18 0 0 0 0,0.0124 v 15.91014 a 18,18 0 0 0 -0.15865,-5.1e-4 18,18 0 0 0 -8.99996,2.41122 18,18 0 0 0 -8.99739,15.26883 h -0.003 v 0.30748 a 18,18 0 0 0 -5.1e-4,0.0124 h 5.1e-4 v 17.30489 a 18,18 0 0 0 -14.48542,8.96586 18,18 0 0 0 0,17.99993 18,18 0 0 0 15.26832,8.99739 v 0.003 h 0.31988 53.05567 v -0.13178 -35.86861 -51.18034 -0.2744 h -0.002 a 18,18 0 0 0 -8.9979,-15.31431 18,18 0 0 0 -8.99996,-2.41174 z" />
      <path
         id="path99"
         style="fill:url(#linearGradient103);stroke-width:0"
         d="m 212.87069,279.01348 a 9,9 0 0 1 -9,9 9,9 0 0 1 -9,-9 9,9 0 0 1 9,-9 9,9 0 0 1 9,9 z" />
      <path
         id="path100"
         style="fill:url(#linearGradient104);fill-opacity:1;stroke:none;stroke-width:0"
         d="m 243.29566,312.20612 c -3.15962,-9e-5 -6.2636,0.83151 -8.99997,2.41122 -5.50229,3.17664 -8.92236,9.01869 -8.99893,15.37167 h -0.001 v 0.21705 26.78286 l 18.4204,0.11081 3.24714,-0.4837 3.22549,-0.86953 3.23055,-1.94077 2.54145,-2.02154 1.79811,-2.03436 1.38978,-2.00546 0.94365,-2.02825 0.5454,-1.85429 0.6579,-3.59926 v -10.05651 -0.21705 h -0.001 c -0.0766,-6.35298 -3.49664,-12.19503 -8.99893,-15.37167 -2.73637,-1.57971 -5.84035,-2.41131 -8.99997,-2.41122 z"
         sodipodi:nodetypes="cccccccccccccccccccccc" />
      <path
         id="path101"
         style="fill:url(#linearGradient105);stroke-width:0"
         d="m 253.35395,296.94707 a 9,9 0 0 1 -9,9 9,9 0 0 1 -9,-9 9,9 0 0 1 9,-9 9,9 0 0 1 9,9 z" />
    </g>
  </g>
</svg>
